<svg xmlns="http://www.w3.org/2000/svg" viewBox="0 0 1200 720" width="1200" height="720" font-family="Roboto, Arial, sans-serif"><rect width="1200" height="720" fill="#F5F6F8"/><rect x="380" y="300" width="440" height="251" rx="6" fill="#E9EBEF" stroke="#B8BEC8" stroke-width="1.5"/><rect x="384" y="350" width="432" height="150" rx="3" fill="#7AC943"/><rect x="384" y="350" width="40" height="150" rx="3" fill="#1F6FD1"/><circle cx="390.0" cy="325.1" r="5.0" fill="#5B667A"/><circle cx="390.0" cy="525.6" r="5.0" fill="#5B667A"/><circle cx="422.3" cy="325.1" r="5.0" fill="#5B667A"/><circle cx="422.3" cy="525.6" r="5.0" fill="#5B667A"/><circle cx="454.6" cy="325.1" r="5.0" fill="#5B667A"/><circle cx="454.6" cy="525.6" r="5.0" fill="#5B667A"/><circle cx="486.9" cy="325.1" r="5.0" fill="#5B667A"/><circle cx="486.9" cy="525.6" r="5.0" fill="#5B667A"/><circle cx="519.2" cy="325.1" r="5.0" fill="#5B667A"/><circle cx="519.2" cy="525.6" r="5.0" fill="#5B667A"/><circle cx="551.5" cy="325.1" r="5.0" fill="#5B667A"/><circle cx="551.5" cy="525.6" r="5.0" fill="#5B667A"/><circle cx="583.8" cy="325.1" r="5.0" fill="#5B667A"/><circle cx="583.8" cy="525.6" r="5.0" fill="#5B667A"/><circle cx="616.2" cy="325.1" r="5.0" fill="#5B667A"/><circle cx="616.2" cy="525.6" r="5.0" fill="#5B667A"/><circle cx="648.5" cy="325.1" r="5.0" fill="#5B667A"/><circle cx="648.5" cy="525.6" r="5.0" fill="#5B667A"/><circle cx="680.8" cy="325.1" r="5.0" fill="#5B667A"/><circle cx="680.8" cy="525.6" r="5.0" fill="#5B667A"/><circle cx="713.1" cy="325.1" r="5.0" fill="#5B667A"/><circle cx="713.1" cy="525.6" r="5.0" fill="#5B667A"/><circle cx="745.4" cy="325.1" r="5.0" fill="#5B667A"/><circle cx="745.4" cy="525.6" r="5.0" fill="#5B667A"/><circle cx="777.7" cy="325.1" r="5.0" fill="#5B667A"/><circle cx="777.7" cy="525.6" r="5.0" fill="#5B667A"/><circle cx="810.0" cy="325.1" r="5.0" fill="#5B667A"/><circle cx="810.0" cy="525.6" r="5.0" fill="#5B667A"/><text x="622" y="432" fill="#0B3D1A" font-size="27.5" font-weight="700" text-anchor="middle">STR-3221-R1</text><rect x="490" y="52" width="220" height="138" rx="14" fill="#FFFFFF" stroke="#E6E8EE" stroke-width="1.5"/><g transform="translate(568,62)"><rect x="10" y="8" width="44" height="48" rx="5" fill="none" stroke="#0B1220" stroke-width="2.6" stroke-linecap="round" stroke-linejoin="round"/><path d="M18 20 H46 M18 32 H46 M18 44 H46" stroke="#9AA3B2" stroke-width="5" stroke-linecap="round"/></g><text x="600" y="150" fill="#0B1220" font-size="18" font-weight="700" text-anchor="middle">Home server</text><text x="600" y="172" fill="#5B667A" font-size="14" font-weight="400" text-anchor="middle">offline</text><path d="M585 236 L615 266 M615 236 L585 266" stroke="#B42318" stroke-width="5" stroke-linecap="round"/><polyline points="600,190 600,300" fill="none" stroke="#FFFFFF" stroke-width="7" stroke-linejoin="round" stroke-linecap="round"/><polyline points="600,190 600,300" fill="none" stroke="#9AA3B2" stroke-width="3" stroke-linejoin="round" stroke-linecap="round" stroke-dasharray="7 7"/><rect x="651" y="236" width="178" height="28" rx="14" fill="#FFFFFF" stroke="#B42318" stroke-width="1.5"/><text x="740" y="255" fill="#B42318" font-size="15" font-weight="700" text-anchor="middle">no bus, no server</text><rect x="60" y="292" width="200" height="138" rx="14" fill="#FFFFFF" stroke="#E6E8EE" stroke-width="1.5"/><g transform="translate(128,302)"><circle cx="32" cy="32" r="22" fill="none" stroke="#0B1220" stroke-width="2.6" stroke-linecap="round" stroke-linejoin="round"/><path d="M20 32 a12 12 0 0 1 24 0" stroke="#0B5ED7" stroke-width="3" fill="none"/><circle cx="32" cy="32" r="4" fill="#0B5ED7"/></g><text x="160" y="390" fill="#0B1220" font-size="18" font-weight="700" text-anchor="middle">Presence</text><text x="160" y="412" fill="#5B667A" font-size="14" font-weight="400" text-anchor="middle">IN1 / IN2</text><polyline points="260,350 380,350" fill="none" stroke="#FFFFFF" stroke-width="7" stroke-linejoin="round" stroke-linecap="round"/><polyline points="260,350 380,350" fill="none" stroke="#0B5ED7" stroke-width="3" stroke-linejoin="round" stroke-linecap="round"/><rect x="120" y="640" width="60" height="10" rx="3" fill="#F2A93B"/><rect x="150" y="618" width="60" height="10" rx="3" fill="#F2A93B"/><rect x="180" y="596" width="60" height="10" rx="3" fill="#F2A93B"/><rect x="210" y="574" width="60" height="10" rx="3" fill="#F2A93B"/><rect x="240" y="552" width="60" height="10" rx="3" fill="#D5D9E0"/><rect x="270" y="530" width="60" height="10" rx="3" fill="#D5D9E0"/><text x="200" y="680" fill="#0B1220" font-size="18" font-weight="700" text-anchor="middle">Stair sequence keeps running</text><polyline points="470,551 470,560 330,560" fill="none" stroke="#FFFFFF" stroke-width="7" stroke-linejoin="round" stroke-linecap="round"/><polyline points="470,551 470,560 330,560" fill="none" stroke="#F2A93B" stroke-width="3" stroke-linejoin="round" stroke-linecap="round"/><rect x="940" y="292" width="200" height="138" rx="14" fill="#FFFFFF" stroke="#E6E8EE" stroke-width="1.5"/><g transform="translate(1008,302)"><rect x="18" y="6" width="28" height="30" rx="6" fill="none" stroke="#0B1220" stroke-width="2.6" stroke-linecap="round" stroke-linejoin="round"/><path d="M24 36 V46 H40 V36" fill="none" stroke="#0B1220" stroke-width="2.6" stroke-linecap="round" stroke-linejoin="round"/><path d="M4 52 H60" stroke="#0B5ED7" stroke-width="5"/><path d="M26 16 H38" stroke="#0B5ED7" stroke-width="3"/></g><text x="1040" y="390" fill="#0B1220" font-size="18" font-weight="700" text-anchor="middle">Valve heads</text><text x="1040" y="412" fill="#5B667A" font-size="14" font-weight="400" text-anchor="middle">zones</text><polyline points="820,350 940,350" fill="none" stroke="#FFFFFF" stroke-width="7" stroke-linejoin="round" stroke-linecap="round"/><polyline points="820,350 940,350" fill="none" stroke="#B42318" stroke-width="3" stroke-linejoin="round" stroke-linecap="round"/><text x="1000" y="680" fill="#0B1220" font-size="18" font-weight="700" text-anchor="middle">Heating cycle, frost protection</text><polyline points="730,551 730,560 1000,560 1000,640" fill="none" stroke="#FFFFFF" stroke-width="7" stroke-linejoin="round" stroke-linecap="round"/><polyline points="730,551 730,560 1000,560 1000,640" fill="none" stroke="#9AA3B2" stroke-width="3" stroke-linejoin="round" stroke-linecap="round" stroke-dasharray="7 7"/></svg>