<svg xmlns="http://www.w3.org/2000/svg" viewBox="0 0 1200 560" width="1200" height="560" font-family="Roboto, Arial, sans-serif"><rect width="1200" height="560" fill="#F5F6F8"/><rect x="40" y="40" width="540" height="440" rx="18" fill="#FFFFFF" stroke="#E6E8EE"/><text x="310" y="92" fill="#0B1220" font-size="26" font-weight="700" text-anchor="middle">Controller running</text><text x="310" y="122" fill="#5B667A" font-size="16" font-weight="400" text-anchor="middle">relay energised: contact open</text><circle cx="190" cy="290" r="8" fill="#0B1220"/><circle cx="310" cy="290" r="8" fill="#0B1220"/><text x="190" y="330" fill="#0B1220" font-size="18" font-weight="700" text-anchor="middle">C</text><text x="310" y="330" fill="#0B1220" font-size="18" font-weight="700" text-anchor="middle">NC</text><line x1="190" y1="290" x2="298" y2="238" stroke="#0B1220" stroke-width="6" stroke-linecap="round"/><path d="M110 290 H182" stroke="#9AA3B2" stroke-width="4"/><path d="M318 290 H410" stroke="#9AA3B2" stroke-width="4"/><text x="106" y="276" fill="#5B667A" font-size="16" font-weight="700" text-anchor="start">L</text><g transform="translate(410,258)" opacity="0.35"><circle cx="32" cy="32" r="20" fill="none" stroke="#0B1220" stroke-width="2.6" stroke-linecap="round" stroke-linejoin="round"/><path d="M24 22 L44 32 L24 42 Z" fill="#0B5ED7"/><path d="M4 32 H12 M52 32 H60" fill="none" stroke="#0B1220" stroke-width="2.6" stroke-linecap="round" stroke-linejoin="round"/></g><text x="310" y="430" fill="#0B1220" font-size="20" font-weight="700" text-anchor="middle">pump off — controller decides</text><rect x="620" y="40" width="540" height="440" rx="18" fill="#FFFFFF" stroke="#E6E8EE"/><text x="890" y="92" fill="#B42318" font-size="26" font-weight="700" text-anchor="middle">Controller unpowered</text><text x="890" y="122" fill="#5B667A" font-size="16" font-weight="400" text-anchor="middle">relay released: contact closed</text><circle cx="770" cy="290" r="8" fill="#0B1220"/><circle cx="890" cy="290" r="8" fill="#0B1220"/><text x="770" y="330" fill="#0B1220" font-size="18" font-weight="700" text-anchor="middle">C</text><text x="890" y="330" fill="#0B1220" font-size="18" font-weight="700" text-anchor="middle">NC</text><line x1="770" y1="290" x2="888" y2="288" stroke="#B42318" stroke-width="6" stroke-linecap="round"/><path d="M690 290 H762" stroke="#B42318" stroke-width="4"/><path d="M898 290 H990" stroke="#B42318" stroke-width="4"/><text x="686" y="276" fill="#5B667A" font-size="16" font-weight="700" text-anchor="start">L</text><g transform="translate(990,258)"><circle cx="32" cy="32" r="20" fill="none" stroke="#0B1220" stroke-width="2.6" stroke-linecap="round" stroke-linejoin="round"/><path d="M24 22 L44 32 L24 42 Z" fill="#0B5ED7"/><path d="M4 32 H12 M52 32 H60" fill="none" stroke="#0B1220" stroke-width="2.6" stroke-linecap="round" stroke-linejoin="round"/></g><text x="890" y="430" fill="#B42318" font-size="20" font-weight="700" text-anchor="middle">pump runs</text><text x="600" y="530" fill="#5B667A" font-size="17" font-weight="400" text-anchor="middle">Use it for loads that must run when the panel loses power: frost protection, water-jacket circulation</text></svg>